ply
format ascii 1.0
element vertex 59
property float x
property float y
property float z
element edge 12
property int vertex1
property int vertex2
property uchar red
property uchar green
property uchar blue
end_header
0.0 0.0 0.0
1.0 0.0 0.0
2.0 0.0 0.0
3.0 0.0 0.0
4.0 0.0 0.0
5.0 0.0 0.0
6.0 0.0 0.0
7.0 0.0 0.0
8.0 0.0 0.0
0.0 1.0 0.0
1.0 1.0 0.0
2.0 1.0 0.0
3.0 1.0 0.0
4.0 1.0 0.0
5.0 1.0 0.0
6.0 1.0 0.0
7.0 1.0 0.0
8.0 1.0 0.0
0.0 2.0 0.0
1.0 2.0 0.0
2.0 2.0 0.0
3.0 2.0 0.0
4.0 2.0 0.0
5.0 2.0 0.0
6.0 2.0 0.0
7.0 2.0 0.0
8.0 2.0 0.0
0.0 3.0 0.0
1.0 3.0 0.0
2.0 3.0 0.0
3.0 3.0 0.0
4.0 3.0 0.0
5.0 3.0 0.0
6.0 3.0 0.0
7.0 3.0 0.0
8.0 3.0 0.0
0.0 4.0 0.0
1.0 4.0 0.0
2.0 4.0 0.0
3.0 4.0 0.0
4.0 4.0 0.0
5.0 4.0 0.0
6.0 4.0 0.0
7.0 4.0 0.0
8.0 4.0 0.0
0.0 5.0 0.0
1.0 5.0 0.0
2.0 5.0 0.0
3.0 5.0 0.0
4.0 5.0 0.0
5.0 5.0 0.0
6.0 5.0 0.0
7.0 5.0 0.0
8.0 5.0 0.0
-2.3076677679281783 -1.8961765896267422 -8.45608668940256
0.0 0.0 1.0
-1.349604634482554 -1.993981558504856 -8.725436314230782
-2.234412786427806 -0.9038652353436438 -8.555845818539815
-2.0306321384186656 -1.820332247559622 -7.498225062778614
0 8 255 0 0
0 45 0 255 0
53 8 255 255 255
53 45 255 255 255
0 54 255 255 255
8 54 255 255 255
45 54 255 255 255
53 54 255 255 255
0 55 0 0 255
54 56 255 0 0
54 57 0 255 0
54 58 0 0 255
